<mxfile host="app.diagrams.net" modified="2022-06-14T04:20:35.023Z" agent="5.0 (Windows NT 10.0; Win64; x64) AppleWebKit/537.36 (KHTML, like Gecko) Chrome/102.0.5005.115 Safari/537.36" etag="PficUZSUOp5rbgNZekj5" version="18.0.2" type="github">
  <diagram id="C5RBs43oDa-KdzZeNtuy" name="Page-1">
    <mxGraphModel dx="1995" dy="2055" grid="1" gridSize="10" guides="1" tooltips="1" connect="1" arrows="1" fold="1" page="1" pageScale="1" pageWidth="1169" pageHeight="827" math="0" shadow="0">
      <root>
        <mxCell id="WIyWlLk6GJQsqaUBKTNV-0" />
        <mxCell id="WIyWlLk6GJQsqaUBKTNV-1" parent="WIyWlLk6GJQsqaUBKTNV-0" />
        <mxCell id="51SrbkHF3i4DgfC3lw7V-27" style="edgeStyle=orthogonalEdgeStyle;orthogonalLoop=1;jettySize=auto;html=1;fontSize=36;entryX=0;entryY=0.5;entryDx=0;entryDy=0;startArrow=classic;startFill=1;strokeWidth=2;exitX=1;exitY=0.5;exitDx=0;exitDy=0;exitPerimeter=0;rounded=0;" edge="1" parent="WIyWlLk6GJQsqaUBKTNV-1" source="51SrbkHF3i4DgfC3lw7V-1" target="51SrbkHF3i4DgfC3lw7V-17">
          <mxGeometry relative="1" as="geometry">
            <Array as="points">
              <mxPoint x="280" y="414" />
              <mxPoint x="280" y="191" />
            </Array>
          </mxGeometry>
        </mxCell>
        <mxCell id="51SrbkHF3i4DgfC3lw7V-1" value="" style="outlineConnect=0;dashed=0;verticalLabelPosition=bottom;verticalAlign=top;align=center;html=1;shape=mxgraph.aws3.traditional_server;fillColor=#7D7C7C;gradientColor=none;" vertex="1" parent="WIyWlLk6GJQsqaUBKTNV-1">
          <mxGeometry x="90" y="354" width="80" height="120" as="geometry" />
        </mxCell>
        <mxCell id="51SrbkHF3i4DgfC3lw7V-2" value="&lt;b&gt;&lt;font style=&quot;font-size: 36px;&quot;&gt;BACKEND&lt;/font&gt;&lt;/b&gt;" style="text;html=1;strokeColor=none;fillColor=none;align=center;verticalAlign=middle;whiteSpace=wrap;rounded=0;" vertex="1" parent="WIyWlLk6GJQsqaUBKTNV-1">
          <mxGeometry x="20" y="32.5" width="220" height="35" as="geometry" />
        </mxCell>
        <mxCell id="51SrbkHF3i4DgfC3lw7V-3" value="" style="endArrow=none;html=1;rounded=0;" edge="1" parent="WIyWlLk6GJQsqaUBKTNV-1">
          <mxGeometry width="50" height="50" relative="1" as="geometry">
            <mxPoint x="240" y="830" as="sourcePoint" />
            <mxPoint x="240" as="targetPoint" />
          </mxGeometry>
        </mxCell>
        <mxCell id="51SrbkHF3i4DgfC3lw7V-5" value="&lt;b&gt;&lt;font style=&quot;&quot;&gt;&lt;font style=&quot;font-size: 36px;&quot;&gt;API REST&lt;/font&gt;&lt;br&gt;&lt;/font&gt;&lt;/b&gt;" style="text;html=1;strokeColor=none;fillColor=none;align=center;verticalAlign=middle;whiteSpace=wrap;rounded=0;" vertex="1" parent="WIyWlLk6GJQsqaUBKTNV-1">
          <mxGeometry x="502" y="10" width="116" height="80" as="geometry" />
        </mxCell>
        <mxCell id="51SrbkHF3i4DgfC3lw7V-55" style="edgeStyle=orthogonalEdgeStyle;rounded=0;orthogonalLoop=1;jettySize=auto;html=1;fontSize=36;startArrow=classic;startFill=1;strokeWidth=2;" edge="1" parent="WIyWlLk6GJQsqaUBKTNV-1" source="51SrbkHF3i4DgfC3lw7V-15" target="51SrbkHF3i4DgfC3lw7V-54">
          <mxGeometry relative="1" as="geometry">
            <Array as="points">
              <mxPoint x="850" y="208" />
              <mxPoint x="850" y="250" />
            </Array>
          </mxGeometry>
        </mxCell>
        <mxCell id="51SrbkHF3i4DgfC3lw7V-15" value="Classroom Rest" style="swimlane;fontStyle=0;childLayout=stackLayout;horizontal=1;startSize=26;fillColor=none;horizontalStack=0;resizeParent=1;resizeParentMax=0;resizeLast=0;collapsible=1;marginBottom=0;fontSize=12;" vertex="1" parent="WIyWlLk6GJQsqaUBKTNV-1">
          <mxGeometry x="400" y="120" width="360" height="176" as="geometry">
            <mxRectangle x="408" y="160" width="120" height="26" as="alternateBounds" />
          </mxGeometry>
        </mxCell>
        <mxCell id="51SrbkHF3i4DgfC3lw7V-16" value="+ getAllClassroomsByUserId (String userId) GET" style="text;strokeColor=none;fillColor=none;align=left;verticalAlign=top;spacingLeft=4;spacingRight=4;overflow=hidden;rotatable=0;points=[[0,0.5],[1,0.5]];portConstraint=eastwest;fontSize=12;" vertex="1" parent="51SrbkHF3i4DgfC3lw7V-15">
          <mxGeometry y="26" width="360" height="30" as="geometry" />
        </mxCell>
        <mxCell id="51SrbkHF3i4DgfC3lw7V-18" value="+ getClassroomById(String classroomId) GET" style="text;strokeColor=none;fillColor=none;align=left;verticalAlign=top;spacingLeft=4;spacingRight=4;overflow=hidden;rotatable=0;points=[[0,0.5],[1,0.5]];portConstraint=eastwest;fontSize=12;" vertex="1" parent="51SrbkHF3i4DgfC3lw7V-15">
          <mxGeometry y="56" width="360" height="30" as="geometry" />
        </mxCell>
        <mxCell id="51SrbkHF3i4DgfC3lw7V-17" value="+ createClassroom (ClassroomPostDTO toCreate) POST" style="text;strokeColor=none;fillColor=none;align=left;verticalAlign=top;spacingLeft=4;spacingRight=4;overflow=hidden;rotatable=0;points=[[0,0.5],[1,0.5]];portConstraint=eastwest;fontSize=12;" vertex="1" parent="51SrbkHF3i4DgfC3lw7V-15">
          <mxGeometry y="86" width="360" height="30" as="geometry" />
        </mxCell>
        <mxCell id="51SrbkHF3i4DgfC3lw7V-30" value="+ editClassroom(ClassroomPutDTO toEdit) PUT" style="text;strokeColor=none;fillColor=none;align=left;verticalAlign=top;spacingLeft=4;spacingRight=4;overflow=hidden;rotatable=0;points=[[0,0.5],[1,0.5]];portConstraint=eastwest;fontSize=12;" vertex="1" parent="51SrbkHF3i4DgfC3lw7V-15">
          <mxGeometry y="116" width="360" height="30" as="geometry" />
        </mxCell>
        <mxCell id="51SrbkHF3i4DgfC3lw7V-31" value="+ deleteClassroom(String classroomId) DELETE" style="text;strokeColor=none;fillColor=none;align=left;verticalAlign=top;spacingLeft=4;spacingRight=4;overflow=hidden;rotatable=0;points=[[0,0.5],[1,0.5]];portConstraint=eastwest;fontSize=12;" vertex="1" parent="51SrbkHF3i4DgfC3lw7V-15">
          <mxGeometry y="146" width="360" height="30" as="geometry" />
        </mxCell>
        <mxCell id="51SrbkHF3i4DgfC3lw7V-28" style="edgeStyle=orthogonalEdgeStyle;orthogonalLoop=1;jettySize=auto;html=1;fontSize=36;startArrow=classic;startFill=1;strokeWidth=2;exitX=1;exitY=0.5;exitDx=0;exitDy=0;exitPerimeter=0;rounded=0;" edge="1" parent="WIyWlLk6GJQsqaUBKTNV-1" source="51SrbkHF3i4DgfC3lw7V-1" target="51SrbkHF3i4DgfC3lw7V-32">
          <mxGeometry relative="1" as="geometry">
            <mxPoint x="180" y="424" as="sourcePoint" />
            <mxPoint x="400" y="412.0000000000002" as="targetPoint" />
            <Array as="points">
              <mxPoint x="340" y="414" />
              <mxPoint x="340" y="414" />
            </Array>
          </mxGeometry>
        </mxCell>
        <mxCell id="51SrbkHF3i4DgfC3lw7V-56" style="edgeStyle=orthogonalEdgeStyle;rounded=0;orthogonalLoop=1;jettySize=auto;html=1;fontSize=36;startArrow=classic;startFill=1;strokeWidth=2;" edge="1" parent="WIyWlLk6GJQsqaUBKTNV-1" source="51SrbkHF3i4DgfC3lw7V-32" target="51SrbkHF3i4DgfC3lw7V-54">
          <mxGeometry relative="1" as="geometry">
            <Array as="points">
              <mxPoint x="850" y="444" />
              <mxPoint x="850" y="250" />
            </Array>
          </mxGeometry>
        </mxCell>
        <mxCell id="51SrbkHF3i4DgfC3lw7V-32" value="Resources Rest" style="swimlane;fontStyle=0;childLayout=stackLayout;horizontal=1;startSize=26;fillColor=none;horizontalStack=0;resizeParent=1;resizeParentMax=0;resizeLast=0;collapsible=1;marginBottom=0;fontSize=12;" vertex="1" parent="WIyWlLk6GJQsqaUBKTNV-1">
          <mxGeometry x="400" y="320" width="360" height="248" as="geometry">
            <mxRectangle x="408" y="160" width="120" height="26" as="alternateBounds" />
          </mxGeometry>
        </mxCell>
        <mxCell id="51SrbkHF3i4DgfC3lw7V-33" value="+ getAllResourcesOfClassroom(String classroomId&#xa;, ResourceType resourceType) GET" style="text;strokeColor=none;fillColor=none;align=left;verticalAlign=top;spacingLeft=4;spacingRight=4;overflow=hidden;rotatable=0;points=[[0,0.5],[1,0.5]];portConstraint=eastwest;fontSize=12;" vertex="1" parent="51SrbkHF3i4DgfC3lw7V-32">
          <mxGeometry y="26" width="360" height="42" as="geometry" />
        </mxCell>
        <mxCell id="51SrbkHF3i4DgfC3lw7V-34" value="+ getResourceDetail(String resourceId) GET" style="text;strokeColor=none;fillColor=none;align=left;verticalAlign=top;spacingLeft=4;spacingRight=4;overflow=hidden;rotatable=0;points=[[0,0.5],[1,0.5]];portConstraint=eastwest;fontSize=12;" vertex="1" parent="51SrbkHF3i4DgfC3lw7V-32">
          <mxGeometry y="68" width="360" height="30" as="geometry" />
        </mxCell>
        <mxCell id="51SrbkHF3i4DgfC3lw7V-49" value="+ resourceFileServe(String resourceId) (by Servlet) GET" style="text;strokeColor=none;fillColor=none;align=left;verticalAlign=top;spacingLeft=4;spacingRight=4;overflow=hidden;rotatable=0;points=[[0,0.5],[1,0.5]];portConstraint=eastwest;fontSize=12;" vertex="1" parent="51SrbkHF3i4DgfC3lw7V-32">
          <mxGeometry y="98" width="360" height="30" as="geometry" />
        </mxCell>
        <mxCell id="51SrbkHF3i4DgfC3lw7V-36" value="+ postNewComment(ResourceCommentPost comment) POST" style="text;strokeColor=none;fillColor=none;align=left;verticalAlign=top;spacingLeft=4;spacingRight=4;overflow=hidden;rotatable=0;points=[[0,0.5],[1,0.5]];portConstraint=eastwest;fontSize=12;" vertex="1" parent="51SrbkHF3i4DgfC3lw7V-32">
          <mxGeometry y="128" width="360" height="30" as="geometry" />
        </mxCell>
        <mxCell id="51SrbkHF3i4DgfC3lw7V-48" value="+ resourceUpload(MultiPart-Form form) (by Servlet) POST" style="text;strokeColor=none;fillColor=none;align=left;verticalAlign=top;spacingLeft=4;spacingRight=4;overflow=hidden;rotatable=0;points=[[0,0.5],[1,0.5]];portConstraint=eastwest;fontSize=12;" vertex="1" parent="51SrbkHF3i4DgfC3lw7V-32">
          <mxGeometry y="158" width="360" height="30" as="geometry" />
        </mxCell>
        <mxCell id="51SrbkHF3i4DgfC3lw7V-35" value="+ editResourceInfo (ResourcePutDTO toEdit) PUT" style="text;strokeColor=none;fillColor=none;align=left;verticalAlign=top;spacingLeft=4;spacingRight=4;overflow=hidden;rotatable=0;points=[[0,0.5],[1,0.5]];portConstraint=eastwest;fontSize=12;" vertex="1" parent="51SrbkHF3i4DgfC3lw7V-32">
          <mxGeometry y="188" width="360" height="30" as="geometry" />
        </mxCell>
        <mxCell id="51SrbkHF3i4DgfC3lw7V-37" value="+ deleteResource(String resourceId) DELETE" style="text;strokeColor=none;fillColor=none;align=left;verticalAlign=top;spacingLeft=4;spacingRight=4;overflow=hidden;rotatable=0;points=[[0,0.5],[1,0.5]];portConstraint=eastwest;fontSize=12;" vertex="1" parent="51SrbkHF3i4DgfC3lw7V-32">
          <mxGeometry y="218" width="360" height="30" as="geometry" />
        </mxCell>
        <mxCell id="51SrbkHF3i4DgfC3lw7V-57" style="edgeStyle=orthogonalEdgeStyle;rounded=0;orthogonalLoop=1;jettySize=auto;html=1;fontSize=36;startArrow=classic;startFill=1;strokeWidth=2;" edge="1" parent="WIyWlLk6GJQsqaUBKTNV-1" source="51SrbkHF3i4DgfC3lw7V-40" target="51SrbkHF3i4DgfC3lw7V-54">
          <mxGeometry relative="1" as="geometry">
            <Array as="points">
              <mxPoint x="850" y="703" />
              <mxPoint x="850" y="250" />
            </Array>
          </mxGeometry>
        </mxCell>
        <mxCell id="51SrbkHF3i4DgfC3lw7V-40" value="User Rest" style="swimlane;fontStyle=0;childLayout=stackLayout;horizontal=1;startSize=26;fillColor=none;horizontalStack=0;resizeParent=1;resizeParentMax=0;resizeLast=0;collapsible=1;marginBottom=0;fontSize=12;" vertex="1" parent="WIyWlLk6GJQsqaUBKTNV-1">
          <mxGeometry x="400" y="600" width="360" height="206" as="geometry">
            <mxRectangle x="408" y="160" width="120" height="26" as="alternateBounds" />
          </mxGeometry>
        </mxCell>
        <mxCell id="51SrbkHF3i4DgfC3lw7V-43" value="+ getAllUsers() GET" style="text;strokeColor=none;fillColor=none;align=left;verticalAlign=top;spacingLeft=4;spacingRight=4;overflow=hidden;rotatable=0;points=[[0,0.5],[1,0.5]];portConstraint=eastwest;fontSize=12;" vertex="1" parent="51SrbkHF3i4DgfC3lw7V-40">
          <mxGeometry y="26" width="360" height="30" as="geometry" />
        </mxCell>
        <mxCell id="51SrbkHF3i4DgfC3lw7V-44" value="+ getAllUsersByClassroomId(String classroomId) GET" style="text;strokeColor=none;fillColor=none;align=left;verticalAlign=top;spacingLeft=4;spacingRight=4;overflow=hidden;rotatable=0;points=[[0,0.5],[1,0.5]];portConstraint=eastwest;fontSize=12;" vertex="1" parent="51SrbkHF3i4DgfC3lw7V-40">
          <mxGeometry y="56" width="360" height="30" as="geometry" />
        </mxCell>
        <mxCell id="51SrbkHF3i4DgfC3lw7V-45" value="+ getUser(String userId) GET" style="text;strokeColor=none;fillColor=none;align=left;verticalAlign=top;spacingLeft=4;spacingRight=4;overflow=hidden;rotatable=0;points=[[0,0.5],[1,0.5]];portConstraint=eastwest;fontSize=12;" vertex="1" parent="51SrbkHF3i4DgfC3lw7V-40">
          <mxGeometry y="86" width="360" height="30" as="geometry" />
        </mxCell>
        <mxCell id="51SrbkHF3i4DgfC3lw7V-41" value="+ createUser(UserPostPutDTO toCreate) POST" style="text;strokeColor=none;fillColor=none;align=left;verticalAlign=top;spacingLeft=4;spacingRight=4;overflow=hidden;rotatable=0;points=[[0,0.5],[1,0.5]];portConstraint=eastwest;fontSize=12;" vertex="1" parent="51SrbkHF3i4DgfC3lw7V-40">
          <mxGeometry y="116" width="360" height="30" as="geometry" />
        </mxCell>
        <mxCell id="51SrbkHF3i4DgfC3lw7V-42" value="+ editUser(UserPostPutDTO toEdit) PUT" style="text;strokeColor=none;fillColor=none;align=left;verticalAlign=top;spacingLeft=4;spacingRight=4;overflow=hidden;rotatable=0;points=[[0,0.5],[1,0.5]];portConstraint=eastwest;fontSize=12;" vertex="1" parent="51SrbkHF3i4DgfC3lw7V-40">
          <mxGeometry y="146" width="360" height="30" as="geometry" />
        </mxCell>
        <mxCell id="51SrbkHF3i4DgfC3lw7V-50" value="+ deleteUser(String userId) DELETE" style="text;strokeColor=none;fillColor=none;align=left;verticalAlign=top;spacingLeft=4;spacingRight=4;overflow=hidden;rotatable=0;points=[[0,0.5],[1,0.5]];portConstraint=eastwest;fontSize=12;" vertex="1" parent="51SrbkHF3i4DgfC3lw7V-40">
          <mxGeometry y="176" width="360" height="30" as="geometry" />
        </mxCell>
        <mxCell id="51SrbkHF3i4DgfC3lw7V-47" style="edgeStyle=orthogonalEdgeStyle;orthogonalLoop=1;jettySize=auto;html=1;fontSize=36;startArrow=classic;startFill=1;strokeWidth=2;exitX=1;exitY=0.5;exitDx=0;exitDy=0;exitPerimeter=0;rounded=0;" edge="1" parent="WIyWlLk6GJQsqaUBKTNV-1" source="51SrbkHF3i4DgfC3lw7V-1" target="51SrbkHF3i4DgfC3lw7V-40">
          <mxGeometry relative="1" as="geometry">
            <mxPoint x="180" y="424" as="sourcePoint" />
            <mxPoint x="410" y="424" as="targetPoint" />
            <Array as="points">
              <mxPoint x="280" y="414" />
              <mxPoint x="280" y="648" />
            </Array>
          </mxGeometry>
        </mxCell>
        <mxCell id="51SrbkHF3i4DgfC3lw7V-51" value="" style="endArrow=none;html=1;rounded=0;" edge="1" parent="WIyWlLk6GJQsqaUBKTNV-1">
          <mxGeometry width="50" height="50" relative="1" as="geometry">
            <mxPoint x="830.0000000000002" y="829" as="sourcePoint" />
            <mxPoint x="830.0000000000002" y="-0.9999999999998863" as="targetPoint" />
          </mxGeometry>
        </mxCell>
        <mxCell id="51SrbkHF3i4DgfC3lw7V-52" value="&lt;b&gt;&lt;font style=&quot;&quot;&gt;&lt;font style=&quot;font-size: 36px;&quot;&gt;FRONTEND&lt;/font&gt;&lt;br&gt;&lt;/font&gt;&lt;/b&gt;" style="text;html=1;strokeColor=none;fillColor=none;align=center;verticalAlign=middle;whiteSpace=wrap;rounded=0;" vertex="1" parent="WIyWlLk6GJQsqaUBKTNV-1">
          <mxGeometry x="920" y="10" width="200" height="80" as="geometry" />
        </mxCell>
        <mxCell id="51SrbkHF3i4DgfC3lw7V-58" style="edgeStyle=orthogonalEdgeStyle;rounded=0;orthogonalLoop=1;jettySize=auto;html=1;fontSize=36;startArrow=classic;startFill=1;strokeWidth=2;" edge="1" parent="WIyWlLk6GJQsqaUBKTNV-1" source="51SrbkHF3i4DgfC3lw7V-53" target="51SrbkHF3i4DgfC3lw7V-40">
          <mxGeometry relative="1" as="geometry">
            <Array as="points">
              <mxPoint x="850" y="610" />
              <mxPoint x="850" y="703" />
            </Array>
          </mxGeometry>
        </mxCell>
        <mxCell id="51SrbkHF3i4DgfC3lw7V-59" style="edgeStyle=orthogonalEdgeStyle;rounded=0;orthogonalLoop=1;jettySize=auto;html=1;fontSize=36;startArrow=classic;startFill=1;strokeWidth=2;" edge="1" parent="WIyWlLk6GJQsqaUBKTNV-1" source="51SrbkHF3i4DgfC3lw7V-53" target="51SrbkHF3i4DgfC3lw7V-32">
          <mxGeometry relative="1" as="geometry">
            <Array as="points">
              <mxPoint x="850" y="610" />
              <mxPoint x="850" y="444" />
            </Array>
          </mxGeometry>
        </mxCell>
        <mxCell id="51SrbkHF3i4DgfC3lw7V-60" style="edgeStyle=orthogonalEdgeStyle;rounded=0;orthogonalLoop=1;jettySize=auto;html=1;fontSize=36;startArrow=classic;startFill=1;strokeWidth=2;" edge="1" parent="WIyWlLk6GJQsqaUBKTNV-1" source="51SrbkHF3i4DgfC3lw7V-53" target="51SrbkHF3i4DgfC3lw7V-15">
          <mxGeometry relative="1" as="geometry">
            <Array as="points">
              <mxPoint x="850" y="610" />
              <mxPoint x="850" y="208" />
            </Array>
          </mxGeometry>
        </mxCell>
        <mxCell id="51SrbkHF3i4DgfC3lw7V-53" value="" style="sketch=0;aspect=fixed;pointerEvents=1;shadow=0;dashed=0;html=1;strokeColor=none;labelPosition=center;verticalLabelPosition=bottom;verticalAlign=top;align=center;fillColor=#00188D;shape=mxgraph.mscae.enterprise.android_phone;fontSize=36;" vertex="1" parent="WIyWlLk6GJQsqaUBKTNV-1">
          <mxGeometry x="990" y="550" width="72" height="120" as="geometry" />
        </mxCell>
        <mxCell id="51SrbkHF3i4DgfC3lw7V-54" value="" style="sketch=0;aspect=fixed;pointerEvents=1;shadow=0;dashed=0;html=1;strokeColor=none;labelPosition=center;verticalLabelPosition=bottom;verticalAlign=top;align=center;fillColor=#00188D;shape=mxgraph.azure.computer;fontSize=36;" vertex="1" parent="WIyWlLk6GJQsqaUBKTNV-1">
          <mxGeometry x="953.33" y="190" width="133.33" height="120" as="geometry" />
        </mxCell>
      </root>
    </mxGraphModel>
  </diagram>
</mxfile>
